<svg width="18" height="18" viewBox="0 0 18 18" fill="none" xmlns="http://www.w3.org/2000/svg">
<g id="clock-svgrepo-com" clip-path="url(#clip0_344_543)">
<path id="Vector" d="M9 0.421875C4.26262 0.421875 0.421875 4.26262 0.421875 9C0.421875 13.7374 4.26262 17.5781 9 17.5781C13.7374 17.5781 17.5781 13.7374 17.5781 9C17.5725 4.26487 13.7346 0.4275 9 0.421875ZM9 16.1719C5.03888 16.1719 1.82812 12.9611 1.82812 9C1.82812 5.03888 5.03888 1.82812 9 1.82812C12.9611 1.82812 16.1719 5.03888 16.1719 9C16.1674 12.9589 12.9583 16.1674 9 16.1719ZM9.70312 8.70862V3.375C9.70312 2.98688 9.38813 2.67188 9 2.67188C8.61187 2.67188 8.29688 2.98688 8.29688 3.375V9C8.29688 9.19406 8.37563 9.37013 8.50275 9.49725L10.7522 11.7478C10.8793 11.8749 11.0554 11.9537 11.2494 11.9537C11.6381 11.9537 11.9531 11.6387 11.9531 11.25C11.9531 11.0559 11.8744 10.8799 11.7473 10.7527L9.70312 8.70862Z" fill="#4E68F8"/>
</g>
<defs>
<clipPath id="clip0_344_543">
<rect width="18" height="18" fill="white"/>
</clipPath>
</defs>
</svg>
