<svg width="18" height="18" viewBox="0 0 18 18" fill="none" xmlns="http://www.w3.org/2000/svg">
<g id="lesson-teach-education-class-svgrepo-com">
<path id="Vector" d="M3.38344 4.28224C3.38344 3.27403 4.19007 2.46094 5.20475 2.46094C6.21296 2.46094 7.02605 3.27403 7.02605 4.28224C7.01958 5.29699 6.20649 6.10355 5.20475 6.10355C4.19654 6.10355 3.38344 5.29045 3.38344 4.28224ZM13.4297 12.0938H10.125V9.14062C10.125 7.70196 8.86775 6.53906 7.45313 6.53906H3.02344C1.47038 6.53906 0.139928 7.88484 0.140631 9.21094V14.625C0.138803 15.225 0.562576 15.5383 0.984381 15.5391C1.40724 15.5398 1.82813 15.2265 1.82813 14.625V9.35156H2.39063V15.5391H7.87501V9.35156H8.43751L8.4432 12.8932C8.43948 13.507 8.81881 13.7683 9.21094 13.7812H13.4297C14.5802 13.7812 14.5802 12.0938 13.4297 12.0938ZM11.8625 10.8109C13.0573 10.8109 13.6747 11.0035 13.9404 11.1215H11.0391V7.40573H11.505V10.8128L11.7937 10.8109H11.8625ZM14.2889 7.51324C14.2889 8.08671 14.2889 10.9901 14.2889 10.9901C14.2889 10.9901 13.7527 10.5241 11.8635 10.5241H11.7918C11.7918 9.97446 11.7918 7.02338 11.7918 7.02338C11.7918 7.02338 11.8993 7.01909 12.0694 7.01909H12.0699C12.6549 7.01909 13.984 7.06929 14.2889 7.51324ZM17.1048 10.8109L17.3934 10.8128V7.40573H17.8594V11.1215H14.9579C15.2236 11.0035 15.8411 10.8109 17.0359 10.8109H17.1048ZM16.8285 7.01909H16.829C16.9992 7.01909 17.1067 7.02338 17.1067 7.02338C17.1067 7.02338 17.1067 9.97446 17.1067 10.5241H17.035C15.1457 10.5241 14.6095 10.9901 14.6095 10.9901C14.6095 10.9901 14.6095 8.08671 14.6095 7.51324C14.9145 7.06929 16.2435 7.01909 16.8285 7.01909Z" fill="#4E68F8"/>
</g>
</svg>
