<svg width="48" height="46" viewBox="0 0 48 46" fill="none" xmlns="http://www.w3.org/2000/svg">
<g id="Group">
<path id="Vector" d="M12.247 38.3605C12.5359 38.3605 12.8271 38.3323 13.1123 38.2769C14.2979 38.0469 15.3225 37.3689 15.998 36.3679C16.6732 35.367 16.9184 34.1631 16.6881 32.9776C16.5661 32.3499 16.3161 31.7738 15.9697 31.2729L20.7729 25.7311C21.4558 26.1411 22.2507 26.3752 23.0905 26.3752C23.3795 26.3752 23.6706 26.3472 23.956 26.2918C25.1413 26.0617 26.1659 25.3836 26.8413 24.3828C27.4032 23.5498 27.6659 22.5762 27.6059 21.59L34.9232 18.6444C35.7476 19.4658 36.8808 19.9654 38.1093 19.9654C38.3982 19.9654 38.6895 19.9372 38.9751 19.8818C41.4217 19.4064 43.0253 17.0292 42.5501 14.5829C42.3935 13.7747 42.0253 13.0515 41.5106 12.4651L44.8165 5.12751L45.7239 7.15348C45.9217 7.59536 46.3558 7.85747 46.8106 7.85747C46.973 7.85747 47.1384 7.82399 47.2962 7.75323C47.896 7.48461 48.1646 6.78062 47.8958 6.18087L45.7743 1.44397C45.6453 1.156 45.4072 0.931015 45.1122 0.818523C44.8176 0.706189 44.4898 0.715391 44.2018 0.844385L39.4659 2.96587C38.8661 3.23449 38.5977 3.93864 38.8664 4.53839C39.1351 5.1383 39.8392 5.4066 40.439 5.13782L42.6472 4.14855L39.4971 11.1404C39.06 10.9992 38.5958 10.9232 38.1171 10.9232C37.8282 10.9232 37.5368 10.9514 37.2513 11.0068C34.8051 11.4821 33.201 13.8594 33.6756 16.3065C33.6921 16.3915 33.7119 16.4751 33.7329 16.5583L26.8431 19.3317C26.0231 18.1152 24.6351 17.3333 23.0978 17.3333C22.8091 17.3333 22.5178 17.3616 22.2323 17.4169C19.7856 17.892 18.1815 20.2692 18.6565 22.7163C18.746 23.1769 18.9044 23.6101 19.119 24.0059L14.1505 29.7381C13.5702 29.4682 12.9264 29.3186 12.2543 29.3186C11.9655 29.3186 11.6745 29.3467 11.3889 29.4021C10.2036 29.6323 9.17892 30.3104 8.50364 31.3113C7.82837 32.3123 7.58324 33.5162 7.81362 34.7018C8.22567 36.8218 10.0901 38.3605 12.247 38.3605ZM37.7053 13.3425C37.8415 13.316 37.9802 13.3025 38.1172 13.3025C39.1373 13.3025 40.019 14.0314 40.2138 15.036C40.439 16.1946 39.6796 17.3202 38.5212 17.5451C38.3851 17.5716 38.2464 17.5851 38.1093 17.5851C37.0891 17.5851 36.2071 16.8562 36.0121 15.8524C35.7873 14.6935 36.5469 13.5676 37.7053 13.3425ZM22.6861 19.753C22.8222 19.7265 22.9609 19.713 23.0978 19.713C24.118 19.713 24.9997 20.4419 25.1947 21.4462C25.3039 22.0076 25.1879 22.5776 24.868 23.0516C24.5483 23.5253 24.0635 23.8465 23.5021 23.9553C23.366 23.9818 23.2273 23.9951 23.0904 23.9951C22.07 23.9951 21.1878 23.2662 20.9927 22.2624C20.768 21.1035 21.5275 19.9779 22.6861 19.753ZM10.4765 32.6421C10.7962 32.1684 11.2814 31.8472 11.8426 31.7382C11.9787 31.7119 12.117 31.6984 12.2541 31.6984C13.2743 31.6984 14.1564 32.4273 14.3517 33.4313C14.4607 33.9927 14.3445 34.5629 14.0247 35.0368C13.705 35.5106 13.2199 35.8318 12.6586 35.9406C12.5224 35.9671 12.3838 35.9806 12.2468 35.9806C11.2268 35.9806 10.3449 35.2517 10.1498 34.2477C10.0408 33.6863 10.1569 33.1161 10.4765 32.6421Z" fill="black"/>
<path id="Vector_2" d="M46.7339 40.7886H4.93586V3.94364C4.93586 3.2863 4.40323 2.75366 3.74589 2.75366C3.0887 2.75366 2.55591 3.2863 2.55591 3.94364V40.7886H1.18998C0.532633 40.7886 0 41.3214 0 41.9786C0 42.636 0.532633 43.1686 1.18998 43.1686H2.55591V44.0704C2.55591 44.7278 3.0887 45.2604 3.74589 45.2604C4.40323 45.2604 4.93586 44.7278 4.93586 44.0704V43.1686H46.7339C47.3912 43.1686 47.9238 42.636 47.9238 41.9786C47.9238 41.3213 47.391 40.7886 46.7339 40.7886Z" fill="black"/>
</g>
</svg>
