<svg width="46" height="48" viewBox="0 0 46 48" fill="none" xmlns="http://www.w3.org/2000/svg">
<g id="Group">
<g id="Group_2">
<path id="Vector" d="M38.3256 0C34.7893 0 31.8603 2.57633 31.2824 5.95592H1.72809C1.06197 5.95592 0.523193 6.49469 0.523193 7.16082C0.523193 7.82694 1.06197 8.36571 1.72809 8.36571H31.2726C31.8505 11.7355 34.7795 14.3216 38.3158 14.3216C42.2636 14.3216 45.4669 11.1184 45.4669 7.17061C45.4669 3.22286 42.2636 0 38.3256 0ZM38.3256 11.902C35.7101 11.902 33.5746 9.76653 33.5746 7.15102C33.5746 4.53551 35.7101 2.4 38.3256 2.4C40.9412 2.4 43.0767 4.53551 43.0767 7.15102C43.0767 9.76653 40.9412 11.902 38.3256 11.902Z" fill="black"/>
<path id="Vector_2" d="M44.2815 22.7264H14.7272C14.1493 19.3566 11.2203 16.7705 7.68398 16.7705C3.73622 16.7705 0.532959 19.9738 0.532959 23.9215C0.532959 27.8693 3.74602 31.0726 7.68398 31.0726C11.2203 31.0726 14.1493 28.4962 14.7272 25.1166H44.2717C44.9379 25.1166 45.4766 24.5779 45.4766 23.9117C45.4766 23.2652 44.9379 22.7264 44.2815 22.7264ZM7.68398 28.6823C5.06847 28.6823 2.93296 26.5468 2.93296 23.9313C2.93296 21.3158 5.06847 19.1803 7.68398 19.1803C10.2995 19.1803 12.435 21.3158 12.435 23.9313C12.435 26.5468 10.3093 28.6823 7.68398 28.6823Z" fill="black"/>
<path id="Vector_3" d="M38.3256 33.6785C34.7893 33.6785 31.8603 36.2548 31.2824 39.6344H1.72809C1.06197 39.6344 0.523193 40.1732 0.523193 40.8393C0.523193 41.5054 1.06197 42.0442 1.72809 42.0442H31.2726C31.8505 45.414 34.7795 48.0001 38.3158 48.0001C42.2636 48.0001 45.4669 44.7968 45.4669 40.8491C45.4669 36.9013 42.2636 33.6785 38.3256 33.6785ZM38.3256 45.5805C35.7101 45.5805 33.5746 43.445 33.5746 40.8295C33.5746 38.214 35.7101 36.0785 38.3256 36.0785C40.9412 36.0785 43.0767 38.214 43.0767 40.8295C43.0767 43.445 40.9412 45.5805 38.3256 45.5805Z" fill="black"/>
</g>
</g>
</svg>
