<svg width="48" height="48" viewBox="0 0 48 48" fill="none" xmlns="http://www.w3.org/2000/svg">
<g id="Categori Icon/assembly-svgrepo-com">
<path id="Vector" d="M24 3C22.131 7.584 21 10.5855 18.9135 15.033C20.5325 16.7914 22.3387 18.3678 24.3 19.734C22.1342 18.9113 20.1098 17.7559 18.3 16.3095C15.645 21.8685 11.469 29.7825 3 45C10.779 40.509 16.518 38.028 22.0365 37.551V36.3H20.7855V35.0445H22.0365V36.3H24.549V33.7815H22.0365V32.5305H20.7855V30.0195H22.0365V28.7685H24.549V30.0195H25.8V31.275H24.5445V30.0195H22.0365V32.5305L24.549 32.532V33.7815L25.8 33.783V36.3H24.5445V37.4745C30.5145 37.6245 36.5535 40.1325 44.9955 45.006C43.701 42.6225 42.5415 40.4745 41.4375 38.4285C39.2213 36.4887 36.7887 34.8111 34.188 33.429C36.2162 33.9037 38.1653 34.6686 39.975 35.7C28.755 14.808 27.8475 12.03 24 3ZM15.7665 28.7685H18.273V30.0195H19.5285V37.551H18.273V33.7815H15.7665V37.5495H14.5095V30.0195H15.765L15.7665 28.7685ZM15.765 30.0195L15.7665 32.532H18.273V30.0195H15.765ZM27.0555 28.7685H28.311V30.0195H29.5665V31.275H30.8175V30.0195H32.073V28.7685H33.3285V37.551H32.073V31.275H30.8175V32.5305H29.5665V31.275H28.311V37.551H27.0555V28.7685Z" fill="#647AF2"/>
<path id="Vector_2" d="M35.8215 27.963C26.718 15.6075 24.6075 5.64898 24.0735 3.27148C27.5584 11.7003 31.4797 19.9419 35.8215 27.963Z" fill="#647AF2"/>
<path id="Vector_3" d="M24.0765 3.17993L23.4 4.84043C23.1615 5.42693 22.9335 5.98793 22.7085 6.53693C22.4835 7.08593 22.2585 7.62293 22.0365 8.15243C21.8145 8.68193 21.5865 9.20243 21.3645 9.73193C21.1425 10.2614 20.9145 10.7909 20.667 11.3309C20.4195 11.8709 20.1735 12.4244 19.908 12.9974C19.6425 13.5704 19.365 14.1644 19.0665 14.7869C19.0245 14.8724 18.975 14.9714 18.933 15.0584C20.5471 16.807 22.3467 18.3747 24.3 19.7339C22.1408 18.9125 20.1223 17.7607 18.3165 16.3199L18.1065 16.7504C18.009 16.9499 17.8905 17.1749 17.7885 17.3804L17.6295 17.7089C16.3125 20.3984 14.6205 23.6849 12.3435 27.9419C17.67 24.9419 23.415 20.6114 33.8505 24.3419C33.327 23.3504 32.8455 22.4219 32.394 21.5474C31.9425 20.6729 31.5225 19.8554 31.1325 19.0814C30.7425 18.3074 30.3825 17.5814 30.045 16.8869C29.7075 16.1924 29.3955 15.5369 29.1015 14.9174C28.8075 14.2979 28.5315 13.6904 28.2705 13.1174C28.0095 12.5444 27.762 11.9864 27.5205 11.4404C27.279 10.8944 27.0705 10.3499 26.85 9.81893C26.6295 9.28793 26.4135 8.75543 26.199 8.21993C26.145 8.08343 26.0895 7.94093 26.0355 7.80443C25.4235 6.37043 24.804 4.88693 24.0765 3.17993Z" fill="#647AF2"/>
</g>
</svg>
