<svg width="48" height="48" viewBox="0 0 48 48" fill="none" xmlns="http://www.w3.org/2000/svg">
<g id="Group">
<path id="Vector" d="M33.1166 10.6173C32.8421 10.7501 32.5716 10.8907 32.301 11.0469C31.4855 11.5157 30.6858 12.086 29.8662 12.7423L28.1197 10.7774C28.7204 10.2266 29.3769 9.72664 30.0731 9.28523C30.6261 8.92976 31.207 8.61726 31.7998 8.34382C32.0385 8.22664 32.2772 8.11726 32.5198 8.0157C31.3661 6.01179 29.7071 4.57429 27.8293 3.68757C25.9554 2.80476 23.8508 2.46492 21.8059 2.65633C19.7729 2.84773 17.7956 3.57429 16.1644 4.82039C14.2787 6.25789 12.8385 8.40632 12.2894 11.254L12.1184 12.1446L11.2153 12.3009C10.332 12.4532 9.54032 12.6602 8.84807 12.9259C8.17571 13.1837 7.57895 13.4962 7.05379 13.8673C6.63605 14.1641 6.27402 14.5001 5.96768 14.8594C5.01683 15.9766 4.57522 17.379 4.58715 18.7969C4.59909 20.2384 5.0765 21.6915 5.95574 22.8868C6.28197 23.3321 6.6639 23.7384 7.09755 24.0938C7.53518 24.4532 8.03249 24.7501 8.58947 24.9727C9.14248 25.1954 9.75118 25.3555 10.4315 25.4493H36.6375C37.9146 25.1485 39.0405 24.7384 39.9954 24.2149C40.9462 23.6915 41.722 23.0587 42.3029 22.2969C43.206 21.1173 43.6516 19.4454 43.6675 17.7344C43.6874 15.9376 43.2418 14.1329 42.3705 12.8165C42.1199 12.4376 41.8493 12.0977 41.5589 11.7891C40.254 10.4102 38.5989 9.80867 36.8802 9.79695C35.627 9.78914 34.342 10.086 33.1166 10.6173ZM45.0798 32.9141C45.8874 32.9141 46.6155 33.2344 47.1446 33.754C47.6738 34.2735 48 34.9923 48 35.7813C48 36.5743 47.6738 37.2891 47.1446 37.8087C46.6155 38.3282 45.8835 38.6485 45.0798 38.6485C44.2722 38.6485 43.5441 38.3282 43.015 37.8087C42.7405 37.5391 42.5177 37.2149 42.3705 36.8516H35.1019C34.529 36.8516 34.0635 36.3946 34.0635 35.8321V28.0587H28.5772V42.4454C28.9671 42.5899 29.3172 42.8165 29.6036 43.0977C30.1328 43.6173 30.459 44.336 30.459 45.1251C30.459 45.918 30.1328 46.6329 29.6036 47.1524C29.0745 47.6719 28.3425 47.9923 27.5388 47.9923C26.7312 47.9923 26.0031 47.6719 25.474 47.1524C24.9449 46.6329 24.6186 45.9141 24.6186 45.1251C24.6186 44.3321 24.9449 43.6173 25.474 43.0977C25.7644 42.8126 26.1106 42.5899 26.5005 42.4454V28.0626H20.2981V44.9649C20.2981 45.5274 19.8326 45.9844 19.2597 45.9844H7.70626C7.56303 46.4337 7.31239 46.836 6.98218 47.1602C6.45305 47.6798 5.72101 48.0001 4.91736 48.0001C4.10974 48.0001 3.38168 47.6798 2.85255 47.1602C2.32341 46.6407 1.99718 45.9219 1.99718 45.1329C1.99718 44.3399 2.32341 43.6251 2.85255 43.1055C3.38168 42.586 4.11372 42.2657 4.91736 42.2657C5.72499 42.2657 6.45305 42.586 6.98218 43.1055C7.22884 43.3477 7.43174 43.6329 7.57895 43.9493H18.2213V28.0626H12.9936V33.3126C12.9936 33.8751 12.5281 34.3321 11.9552 34.3321H5.64542C5.49822 34.7032 5.27145 35.0352 4.98898 35.3126C4.45984 35.8321 3.72781 36.1524 2.92416 36.1524C2.12051 36.1524 1.38848 35.8321 0.859345 35.3126C0.326233 34.7969 0 34.0782 0 33.2852C0 32.4923 0.326233 31.7774 0.855367 31.2579C1.3845 30.7384 2.11654 30.418 2.92018 30.418C3.72383 30.418 4.45586 30.7384 4.985 31.2579C5.2794 31.5469 5.51413 31.9024 5.66133 32.293H10.9129V28.0626H10.3678L10.2007 28.0469C9.23796 27.9259 8.35872 27.7032 7.56701 27.3829C6.74745 27.0509 6.0194 26.6212 5.37886 26.0938C4.77414 25.5977 4.24103 25.0313 3.78748 24.418C2.58201 22.7852 1.93353 20.7891 1.91761 18.8048C1.91363 16.8009 2.55019 14.8048 3.92275 13.1876C4.36834 12.6641 4.88952 12.1837 5.49026 11.7579C6.18649 11.2618 6.98616 10.8399 7.88529 10.4962C8.50593 10.2579 9.17033 10.0587 9.87451 9.90242C10.6702 6.80476 12.365 4.41804 14.5412 2.75789C16.5782 1.20711 19.0329 0.304763 21.5552 0.0664817C24.0656 -0.1718 26.6556 0.246169 28.9751 1.33992C31.5133 2.53523 33.7213 4.52351 35.1576 7.32429C35.7344 7.23445 36.3113 7.19148 36.8882 7.19539C39.315 7.21101 41.6544 8.06257 43.5004 10.0157C43.8863 10.4259 44.2523 10.8829 44.5944 11.3985C45.7522 13.1446 46.341 15.4727 46.3171 17.754C46.2932 19.9923 45.6766 22.2188 44.4194 23.8594C43.5998 24.9298 42.5495 25.8009 41.2884 26.4923C40.0749 27.1602 38.6586 27.668 37.0712 28.0274L36.7768 28.0626H36.1482V34.8165H42.3347C42.4819 34.4141 42.7166 34.0509 43.019 33.754C43.5402 33.2344 44.2722 32.9141 45.0798 32.9141Z" fill="#647AF2"/>
</g>
</svg>
