<svg width="48" height="48" viewBox="0 0 48 48" fill="none" xmlns="http://www.w3.org/2000/svg">
<g id="Categori Icon/wireless-network-icon" clip-path="url(#clip0_344_218)">
<path id="Vector" d="M9.61026 29.9569C9.94584 30.3361 10.1169 30.8329 10.0857 31.338C10.0545 31.8431 9.8237 32.3151 9.44402 32.6503C9.25603 32.8162 9.03715 32.9436 8.79988 33.025C8.5626 33.1065 8.31159 33.1405 8.06116 33.1251C7.5554 33.0939 7.08274 32.8634 6.74715 32.4843C2.22173 27.3749 -0.0898737 21.9491 8.72315e-05 16.4335C0.0939595 11.0624 2.46032 5.71081 7.2791 0.601436C7.63285 0.257106 8.10607 0.062484 8.60002 0.0581699C9.09398 0.0538558 9.57054 0.240183 9.93026 0.578282C10.29 0.91638 10.5051 1.38014 10.5308 1.87281C10.5564 2.36548 10.3906 2.84901 10.0679 3.22253C5.92968 7.60925 3.91143 12.1092 3.82538 16.496C3.74715 21.0233 5.73412 25.578 9.61026 29.9569ZM25.7758 20.703V46.2342C25.7758 46.7046 25.5887 47.1557 25.2557 47.4883C24.9227 47.8208 24.471 48.0077 24.0001 48.0077C23.5291 48.0077 23.0775 47.8208 22.7444 47.4883C22.4114 47.1557 22.2243 46.7046 22.2243 46.2342V20.703C21.2707 20.2946 20.4873 19.57 20.0067 18.6515C19.5261 17.7331 19.3776 16.6771 19.5863 15.662C19.7951 14.6468 20.3482 13.7348 21.1524 13.0798C21.9566 12.4249 22.9624 12.0672 24.0001 12.0672C25.0378 12.0672 26.0436 12.4249 26.8478 13.0798C27.6519 13.7348 28.2051 14.6468 28.4138 15.662C28.6226 16.6771 28.4741 17.7331 27.9935 18.6515C27.5128 19.57 26.7295 20.2946 25.7758 20.703ZM34.283 26.2382C34.1245 26.4328 33.9292 26.5944 33.7083 26.7137C33.4873 26.833 33.2449 26.9077 32.995 26.9334C32.7451 26.9592 32.4926 26.9355 32.2519 26.8638C32.0112 26.7921 31.7869 26.6738 31.592 26.5155C31.3971 26.3572 31.2353 26.1622 31.1158 25.9415C30.9964 25.7208 30.9216 25.4787 30.8958 25.2292C30.8437 24.7252 30.9943 24.2212 31.3143 23.828C33.2269 21.4842 34.2204 18.996 34.2282 16.535C34.2361 14.0741 33.3013 11.6717 31.3651 9.30066C31.0451 8.90749 30.8946 8.40347 30.9467 7.89947C30.9988 7.39546 31.2492 6.93276 31.6429 6.61316C32.0365 6.29355 32.5412 6.14322 33.0459 6.19523C33.5505 6.24724 34.0138 6.49734 34.3339 6.8905C36.8488 9.96862 38.0575 13.246 38.0496 16.535C38.0496 19.8983 36.7511 23.1991 34.283 26.2382ZM16.6859 23.828C16.8443 24.0227 16.9628 24.2466 17.0347 24.487C17.1065 24.7274 17.1301 24.9796 17.1043 25.2292C17.0786 25.4787 17.0038 25.7208 16.8844 25.9415C16.7649 26.1622 16.6031 26.3572 16.4082 26.5155C16.2132 26.6738 15.989 26.7921 15.7483 26.8638C15.5076 26.9355 15.255 26.9592 15.0052 26.9334C14.7553 26.9077 14.5129 26.833 14.2919 26.7137C14.0709 26.5944 13.8756 26.4328 13.7172 26.2382C11.2491 23.1991 9.96228 19.8983 9.95054 16.535C9.95054 13.246 11.1513 9.96862 13.6702 6.8905C13.8252 6.6858 14.0199 6.51438 14.2426 6.38647C14.4654 6.25856 14.7116 6.17679 14.9667 6.14604C15.2218 6.11529 15.4805 6.13618 15.7273 6.20748C15.9742 6.27878 16.2041 6.39901 16.4034 6.56101C16.6026 6.72301 16.7672 6.92344 16.8872 7.15035C17.0072 7.37726 17.0802 7.62599 17.1018 7.8817C17.1234 8.1374 17.0932 8.39483 17.013 8.63863C16.9328 8.88242 16.8043 9.10758 16.635 9.30066C14.6794 11.6717 13.768 14.1288 13.7719 16.535C13.7758 18.9413 14.7771 21.4842 16.6859 23.828ZM41.253 32.4843C40.9174 32.8634 40.4448 33.0939 39.939 33.1251C39.4333 33.1562 38.9358 32.9854 38.5561 32.6503C38.1765 32.3151 37.9457 31.8431 37.9145 31.338C37.8833 30.8329 38.0543 30.3361 38.3899 29.9569C42.27 25.578 44.2569 21.0233 44.1748 16.496C44.1005 12.0897 42.0705 7.60925 37.9166 3.21472C37.7314 3.03442 37.5846 2.81855 37.4852 2.5801C37.3857 2.34165 37.3356 2.08556 37.3378 1.82726C37.3401 1.56895 37.3947 1.31378 37.4983 1.0771C37.602 0.840425 37.7525 0.627148 37.9409 0.450117C38.1292 0.273085 38.3515 0.135961 38.5943 0.0470057C38.8372 -0.0419497 39.0955 -0.0808963 39.3538 -0.067488C39.6121 -0.0540796 39.865 0.0114061 40.0973 0.125025C40.3296 0.238643 40.5365 0.398043 40.7054 0.593624C45.5242 5.703 47.8906 11.0546 47.9805 16.4257C48.0744 21.9413 45.7628 27.3632 41.2374 32.4764L41.253 32.4843Z" fill="#647AF2"/>
</g>
<defs>
<clipPath id="clip0_344_218">
<rect width="48" height="48" fill="white"/>
</clipPath>
</defs>
</svg>
