<svg width="48" height="44" viewBox="0 0 48 44" fill="none" xmlns="http://www.w3.org/2000/svg">
<g id="Group">
<g id="Group_2">
<g id="Group_3">
<path id="Vector" d="M45.1157 0.197021H2.88451C1.29367 0.197021 0 1.49106 0 3.08165V40.9183C0 42.5089 1.29367 43.8028 2.88451 43.8028H45.1159C46.7062 43.8028 47.9999 42.5089 47.9999 40.9183V3.08165C48.0002 1.49118 46.7061 0.197021 45.1157 0.197021ZM36.4186 5.04089C36.4186 4.45268 36.8955 3.97572 37.4836 3.97572H38.5487C39.1372 3.97572 39.6137 4.45255 39.6137 5.04089V6.24803C39.6137 6.83624 39.1368 7.31307 38.5487 7.31307H37.4836C36.8955 7.31307 36.4186 6.83624 36.4186 6.24803V5.04089ZM31.4658 5.04089C31.4658 4.45268 31.9429 3.97572 32.531 3.97572H33.5959C34.184 3.97572 34.6611 4.45255 34.6611 5.04089V6.24803C34.6611 6.83624 34.184 7.31307 33.5959 7.31307H32.531C31.9429 7.31307 31.4658 6.83624 31.4658 6.24803V5.04089ZM44.5384 40.3412H3.46146V10.5126H44.5384V40.3412ZM44.5664 6.24803C44.5664 6.83624 44.0896 7.31307 43.5015 7.31307H42.4364C41.8478 7.31307 41.3713 6.83624 41.3713 6.24803V5.04089C41.3713 4.45268 41.8481 3.97572 42.4364 3.97572H43.5015C44.0897 3.97572 44.5664 4.45255 44.5664 5.04089V6.24803Z" fill="#647AF2"/>
<path id="Vector_2" d="M10.3034 26.5518L18.0243 30.1423C18.2239 30.2347 18.4364 30.2816 18.6561 30.2816C18.9423 30.2816 19.2212 30.2003 19.4636 30.0461C19.8978 29.7686 20.1571 29.2958 20.1571 28.7813V28.7419C20.1571 28.1603 19.8163 27.6262 19.2886 27.3812L14.4597 25.1375L19.2886 22.8936C19.8163 22.6483 20.1571 22.1143 20.1571 21.533V21.4939C20.1571 20.9787 19.8978 20.5056 19.4636 20.2291C19.2236 20.0758 18.944 19.9946 18.6553 19.9946C18.4375 19.9946 18.2192 20.0425 18.0237 20.1333L10.3033 23.7234C9.77616 23.9687 9.43555 24.5029 9.43555 25.084V25.1913C9.43542 25.7716 9.77579 26.3056 10.3034 26.5518Z" fill="#647AF2"/>
<path id="Vector_3" d="M20.226 33.865C20.5076 34.2504 20.9606 34.4807 21.4376 34.4807H21.4763C22.1314 34.4807 22.7052 34.0613 22.9049 33.4383L27.9908 17.6791C28.1367 17.2243 28.0558 16.7222 27.7741 16.3361C27.4924 15.9506 27.0395 15.7205 26.5623 15.7205H26.5237C25.8684 15.7205 25.2939 16.1396 25.0943 16.7627L20.0079 32.5231C19.8631 32.9786 19.9446 33.4799 20.226 33.865Z" fill="#647AF2"/>
<path id="Vector_4" d="M27.8428 21.5328C27.8428 22.1136 28.1834 22.6477 28.7111 22.8942L33.5401 25.1375L28.7111 27.3809C28.1836 27.6262 27.8428 28.1603 27.8428 28.7417V28.7811C27.8428 29.2957 28.1019 29.7685 28.5365 30.0461C28.7781 30.2001 29.0571 30.2816 29.3437 30.2816C29.5631 30.2816 29.7754 30.2347 29.9764 30.1418L37.6968 26.5515C38.224 26.3056 38.5646 25.7716 38.5646 25.1911V25.0838C38.5646 24.5027 38.224 23.9684 37.6963 23.7231L29.9759 20.1331C29.7812 20.0425 29.5631 19.9946 29.3454 19.9946C29.0571 19.9946 28.7771 20.0755 28.5371 20.2286C28.1025 20.5056 27.8431 20.9785 27.8431 21.4938V21.5327H27.8428V21.5328Z" fill="#647AF2"/>
</g>
</g>
</g>
</svg>
