<svg width="56" height="54" viewBox="0 0 56 54" fill="none" xmlns="http://www.w3.org/2000/svg">
<g id="Group 722">
<path id="Vector" d="M30.6205 50.2168C30.0455 50.2228 29.4706 50.1968 28.8984 50.1391L28.6181 50.105L28.8433 49.9333C37.4425 43.3624 41.3047 36.8628 43.0284 32.5665C44.5399 28.7999 44.7181 26.0312 44.7311 25.1013C40.8721 28.2053 36.2501 30.7326 32.2357 32.6005C27.2728 34.8916 22.143 36.8023 16.8906 38.316L16.7546 38.3516L16.7448 38.2123C15.7842 25.4901 19.1231 16.8148 22.091 11.7781C25.3116 6.3153 28.8125 3.82854 28.8466 3.80262L28.9438 3.73619L29.0086 3.83339C33.7844 10.8806 46.3949 10.2795 46.5228 10.2731H46.565L46.599 10.299C48.7173 11.8798 50.5216 13.8424 51.9192 16.0858C51.9358 16.0958 51.9496 16.1098 51.9595 16.1265C51.9694 16.1432 51.975 16.162 51.9759 16.1814C53.4986 18.7003 54.4297 21.532 54.6992 24.463C55.1026 28.7254 54.0674 31.9525 54.0512 31.9849C50.8111 42.5654 44.1365 46.9395 39.116 48.7458C36.3879 49.7138 33.5152 50.2112 30.6205 50.2168ZM29.2192 49.9366C32.5588 50.1305 35.9032 49.6495 39.0528 48.5223C44.0215 46.7402 50.6183 42.3969 53.8357 31.9104C53.847 31.878 54.8693 28.6881 54.4675 24.4711C54.2063 21.6404 53.3211 18.9028 51.8755 16.4551C50.5195 19.6094 47.9874 22.4493 44.966 24.9134C44.966 25.6262 44.8882 28.565 43.2471 32.6523C41.5169 36.9357 37.6887 43.3965 29.2111 49.9366H29.2192ZM17.8173 23.7129C16.9749 27.7387 16.5602 32.5082 16.9652 38.0536C22.1586 36.5454 27.2317 34.65 32.1417 32.3834C36.1789 30.5025 40.8365 27.9558 44.6987 24.8259C31.2685 20.7888 18.1138 23.6449 17.8092 23.7129H17.8173ZM29.1106 22.4396C33.7229 22.4396 39.278 22.9418 44.8769 24.6428L44.9141 24.6558C47.9177 22.1836 50.4223 19.3566 51.7183 16.2105C50.3433 14.0008 48.5688 12.0664 46.4856 10.5064C45.6658 10.5404 33.6338 10.9081 28.879 4.06344C28.3022 4.49762 25.1788 6.97953 22.2773 11.9077C20.6572 14.6504 18.9368 18.4802 17.8643 23.4651C18.603 23.3095 23.0355 22.4396 29.1025 22.4396H29.1106Z" fill="url(#paint0_linear_233_853)"/>
<path id="Vector_2" d="M28.631 50.2087L28.8108 49.9576C28.8578 49.8928 33.4636 43.377 35.7478 34.4879C37.8539 26.305 38.3593 14.3783 28.8513 4.01C20.649 3.36198 10.0734 11.0993 9.96648 11.1771C9.95428 11.1862 9.9404 11.1928 9.92562 11.1966C9.91084 11.2003 9.89546 11.2011 9.88039 11.1988C9.86532 11.1965 9.85085 11.1913 9.83781 11.1834C9.82478 11.1755 9.81344 11.1651 9.80447 11.1528C9.78683 11.1278 9.77949 11.0971 9.78402 11.0669C9.78855 11.0367 9.8046 11.0094 9.82878 10.9908C9.9357 10.9114 20.6231 3.09143 28.9145 3.78319C33.7292 4.18496 38.024 9.86969 40.156 13.2232C43.0008 17.6961 45.1198 22.89 45.2445 24.7514C45.2607 24.9944 45.2931 25.3119 45.3288 25.6781C45.8277 30.6565 47.3425 45.8055 28.9307 50.1407L28.631 50.2087ZM29.1964 4.03752C33.321 8.60118 35.8936 13.8307 36.843 19.5899C37.6141 24.267 37.329 29.3005 35.9714 34.5478C33.9269 42.4957 30.0339 48.5563 29.1672 49.8378C47.0735 45.4636 45.5847 30.5981 45.0955 25.6991C45.0582 25.3314 45.0258 25.0122 45.0096 24.766C44.9043 23.18 43.0445 18.2016 39.9567 13.3463C37.8976 10.1014 33.7908 4.64667 29.1964 4.04563V4.03752Z" fill="url(#paint1_linear_233_853)"/>
<path id="Vector_3" d="M28.7589 50.2654L28.7897 50.0111C30.6819 34.6677 30.8455 23.7259 30.4664 16.3661C27.9538 14.8043 25.3325 13.1584 22.6449 11.4525C21.9855 11.8477 16.1291 15.3859 11.3629 19.287L11.0049 19.5786L11.1815 19.1525C11.222 19.0569 15.298 9.53918 28.8594 3.79127L28.9744 3.74268L29.0149 3.86094C29.0376 3.92736 30.2364 7.60971 30.69 16.2332C43.9565 24.4825 54.1077 30.3843 54.2292 30.4539L54.3572 30.5285L54.2535 30.6354C48.2885 36.8304 29.1639 49.9884 28.9712 50.1196L28.7589 50.2654ZM30.703 16.5151C31.0707 23.8474 30.899 34.6774 29.0505 49.7826C31.1566 48.3246 48.2675 36.4432 53.983 30.5803C52.7696 29.8723 43.1141 24.2297 30.7046 16.5151H30.703ZM28.8383 4.05533C17.1546 9.04506 12.6103 16.8278 11.6205 18.7848C16.5924 14.7849 22.5331 11.2516 22.5947 11.2159L22.6546 11.1803L22.7162 11.2176C25.3747 12.9056 27.97 14.5354 30.4584 16.0777C30.0371 8.43756 29.0376 4.74547 28.8383 4.05533Z" fill="url(#paint2_linear_233_853)"/>
<path id="Vector_4" d="M3.50091 29.9501C5.43441 29.9501 7.00182 28.3827 7.00182 26.4492C7.00182 24.5157 5.43441 22.9483 3.50091 22.9483C1.56741 22.9483 0 24.5157 0 26.4492C0 28.3827 1.56741 29.9501 3.50091 29.9501Z" fill="url(#paint3_linear_233_853)"/>
<path id="Vector_5" d="M17.9356 25.4885C18.8491 25.4885 19.5896 24.748 19.5896 23.8344C19.5896 22.9209 18.8491 22.1804 17.9356 22.1804C17.022 22.1804 16.2815 22.9209 16.2815 23.8344C16.2815 24.748 17.022 25.4885 17.9356 25.4885Z" fill="url(#paint4_linear_233_853)"/>
<path id="Vector_6" d="M11.0374 20.4113C11.6333 20.4113 12.1164 19.9282 12.1164 19.3323C12.1164 18.7364 11.6333 18.2534 11.0374 18.2534C10.4416 18.2534 9.9585 18.7364 9.9585 19.3323C9.9585 19.9282 10.4416 20.4113 11.0374 20.4113Z" fill="url(#paint5_linear_233_853)"/>
<path id="Vector_7" d="M9.94389 12.5411C10.9111 12.5411 11.6952 11.7571 11.6952 10.7899C11.6952 9.82266 10.9111 9.03859 9.94389 9.03859C8.97669 9.03859 8.19263 9.82266 8.19263 10.7899C8.19263 11.7571 8.97669 12.5411 9.94389 12.5411Z" fill="url(#paint6_linear_233_853)"/>
<path id="Vector_8" d="M16.484 39.9296C17.5389 39.9296 18.394 39.0744 18.394 38.0195C18.394 36.9647 17.5389 36.1095 16.484 36.1095C15.4291 36.1095 14.574 36.9647 14.574 38.0195C14.574 39.0744 15.4291 39.9296 16.484 39.9296Z" fill="url(#paint7_linear_233_853)"/>
<path id="Vector_9" d="M14.0635 46.9217C15.3528 46.9217 16.398 45.8765 16.398 44.5872C16.398 43.2979 15.3528 42.2527 14.0635 42.2527C12.7742 42.2527 11.729 43.2979 11.729 44.5872C11.729 45.8765 12.7742 46.9217 14.0635 46.9217Z" fill="url(#paint8_linear_233_853)"/>
<path id="Vector_10" d="M28.5759 53.29C30.5094 53.29 32.0768 51.7226 32.0768 49.7891C32.0768 47.8556 30.5094 46.2882 28.5759 46.2882C26.6424 46.2882 25.075 47.8556 25.075 49.7891C25.075 51.7226 26.6424 53.29 28.5759 53.29Z" fill="url(#paint9_linear_233_853)"/>
<path id="Vector_11" d="M36.6244 31.4438C37.2319 31.4438 37.7244 30.9513 37.7244 30.3438C37.7244 29.7363 37.2319 29.2438 36.6244 29.2438C36.0169 29.2438 35.5244 29.7363 35.5244 30.3438C35.5244 30.9513 36.0169 31.4438 36.6244 31.4438Z" fill="url(#paint10_linear_233_853)"/>
<path id="Vector_12" d="M44.8784 48.0525C46.1677 48.0525 47.2129 47.0073 47.2129 45.718C47.2129 44.4287 46.1677 43.3835 44.8784 43.3835C43.5891 43.3835 42.5439 44.4287 42.5439 45.718C42.5439 47.0073 43.5891 48.0525 44.8784 48.0525Z" fill="url(#paint11_linear_233_853)"/>
<path id="Vector_13" d="M44.8281 28.4483C46.4395 28.4483 47.7458 27.142 47.7458 25.5306C47.7458 23.9192 46.4395 22.6129 44.8281 22.6129C43.2167 22.6129 41.9104 23.9192 41.9104 25.5306C41.9104 27.142 43.2167 28.4483 44.8281 28.4483Z" fill="url(#paint12_linear_233_853)"/>
<path id="Vector_14" d="M51.7278 18.1692C52.695 18.1692 53.4791 17.3851 53.4791 16.4179C53.4791 15.4507 52.695 14.6666 51.7278 14.6666C50.7606 14.6666 49.9766 15.4507 49.9766 16.4179C49.9766 17.3851 50.7606 18.1692 51.7278 18.1692Z" fill="url(#paint13_linear_233_853)"/>
<path id="Vector_15" d="M46.5747 12.4455C47.864 12.4455 48.9092 11.4004 48.9092 10.1111C48.9092 8.82177 47.864 7.77658 46.5747 7.77658C45.2854 7.77658 44.2402 8.82177 44.2402 10.1111C44.2402 11.4004 45.2854 12.4455 46.5747 12.4455Z" fill="url(#paint14_linear_233_853)"/>
<path id="Vector_16" d="M29.4314 6.54535C31.0428 6.54535 32.3491 5.23905 32.3491 3.62766C32.3491 2.01626 31.0428 0.709959 29.4314 0.709959C27.82 0.709959 26.5137 2.01626 26.5137 3.62766C26.5137 5.23905 27.82 6.54535 29.4314 6.54535Z" fill="url(#paint15_linear_233_853)"/>
<path id="Vector_17" d="M30.4794 25.1289C31.8752 25.1289 33.0067 23.9974 33.0067 22.6016C33.0067 21.2058 31.8752 20.0743 30.4794 20.0743C29.0836 20.0743 27.9521 21.2058 27.9521 22.6016C27.9521 23.9974 29.0836 25.1289 30.4794 25.1289Z" fill="url(#paint16_linear_233_853)"/>
<path id="Vector_18" d="M43.7461 41.5367C44.7133 41.5367 45.4974 40.7526 45.4974 39.7854C45.4974 38.8182 44.7133 38.0341 43.7461 38.0341C42.7789 38.0341 41.9949 38.8182 41.9949 39.7854C41.9949 40.7526 42.7789 41.5367 43.7461 41.5367Z" fill="url(#paint17_linear_233_853)"/>
<path id="Vector_19" d="M54.2698 31.2089C54.6456 31.2089 54.9502 30.9042 54.9502 30.5285C54.9502 30.1527 54.6456 29.848 54.2698 29.848C53.894 29.848 53.5894 30.1527 53.5894 30.5285C53.5894 30.9042 53.894 31.2089 54.2698 31.2089Z" fill="url(#paint18_linear_233_853)"/>
<path id="Vector_20" d="M53.0823 38.7032C54.3716 38.7032 55.4168 37.658 55.4168 36.3687C55.4168 35.0794 54.3716 34.0342 53.0823 34.0342C51.793 34.0342 50.7478 35.0794 50.7478 36.3687C50.7478 37.658 51.793 38.7032 53.0823 38.7032Z" fill="url(#paint19_linear_233_853)"/>
<path id="Vector_21" d="M54.8337 26.4492C55.4779 26.4492 56.0001 25.927 56.0001 25.2828C56.0001 24.6386 55.4779 24.1163 54.8337 24.1163C54.1895 24.1163 53.6672 24.6386 53.6672 25.2828C53.6672 25.927 54.1895 26.4492 54.8337 26.4492Z" fill="url(#paint20_linear_233_853)"/>
<path id="Vector_22" d="M42.6621 18.7913C43.5738 18.7913 44.3129 18.0522 44.3129 17.1404C44.3129 16.2287 43.5738 15.4896 42.6621 15.4896C41.7503 15.4896 41.0112 16.2287 41.0112 17.1404C41.0112 18.0522 41.7503 18.7913 42.6621 18.7913Z" fill="url(#paint21_linear_233_853)"/>
</g>
<defs>
<linearGradient id="paint0_linear_233_853" x1="70.4525" y1="19.1606" x2="15.8198" y2="29.9841" gradientUnits="userSpaceOnUse">
<stop stop-color="#BC48D2"/>
<stop offset="0.46" stop-color="#506BFF"/>
<stop offset="1" stop-color="#0FF3F7"/>
</linearGradient>
<linearGradient id="paint1_linear_233_853" x1="70.3195" y1="18.4851" x2="15.6852" y2="29.3086" gradientUnits="userSpaceOnUse">
<stop stop-color="#BC48D2"/>
<stop offset="0.46" stop-color="#506BFF"/>
<stop offset="1" stop-color="#0FF3F7"/>
</linearGradient>
<linearGradient id="paint2_linear_233_853" x1="70.3778" y1="18.7799" x2="15.7435" y2="29.605" gradientUnits="userSpaceOnUse">
<stop stop-color="#BC48D2"/>
<stop offset="0.46" stop-color="#506BFF"/>
<stop offset="1" stop-color="#0FF3F7"/>
</linearGradient>
<linearGradient id="paint3_linear_233_853" x1="-11.7469" y1="30.0181" x2="60.9266" y2="13.0093" gradientUnits="userSpaceOnUse">
<stop stop-color="#BC48D2"/>
<stop offset="0.46" stop-color="#506BFF"/>
<stop offset="1" stop-color="#0FF3F7"/>
</linearGradient>
<linearGradient id="paint4_linear_233_853" x1="-16.0983" y1="31.8002" x2="56.5752" y2="14.7914" gradientUnits="userSpaceOnUse">
<stop stop-color="#BC48D2"/>
<stop offset="0.46" stop-color="#506BFF"/>
<stop offset="1" stop-color="#0FF3F7"/>
</linearGradient>
<linearGradient id="paint5_linear_233_853" x1="-18.9965" y1="26.3617" x2="53.677" y2="9.3545" gradientUnits="userSpaceOnUse">
<stop stop-color="#BC48D2"/>
<stop offset="0.46" stop-color="#506BFF"/>
<stop offset="1" stop-color="#0FF3F7"/>
</linearGradient>
<linearGradient id="paint6_linear_233_853" x1="-20.0982" y1="17.8208" x2="52.5753" y2="0.812011" gradientUnits="userSpaceOnUse">
<stop stop-color="#BC48D2"/>
<stop offset="0.46" stop-color="#506BFF"/>
<stop offset="1" stop-color="#0FF3F7"/>
</linearGradient>
<linearGradient id="paint7_linear_233_853" x1="-13.895" y1="45.1283" x2="58.7784" y2="28.1211" gradientUnits="userSpaceOnUse">
<stop stop-color="#BC48D2"/>
<stop offset="0.46" stop-color="#506BFF"/>
<stop offset="1" stop-color="#0FF3F7"/>
</linearGradient>
<linearGradient id="paint8_linear_233_853" x1="-9.58427" y1="50.1213" x2="63.0892" y2="33.1124" gradientUnits="userSpaceOnUse">
<stop stop-color="#BC48D2"/>
<stop offset="0.46" stop-color="#506BFF"/>
<stop offset="1" stop-color="#0FF3F7"/>
</linearGradient>
<linearGradient id="paint9_linear_233_853" x1="-5.2652" y1="57.7095" x2="67.4083" y2="40.7007" gradientUnits="userSpaceOnUse">
<stop stop-color="#BC48D2"/>
<stop offset="0.46" stop-color="#506BFF"/>
<stop offset="1" stop-color="#0FF3F7"/>
</linearGradient>
<linearGradient id="paint10_linear_233_853" x1="-7.69827" y1="40.7169" x2="64.9751" y2="23.7081" gradientUnits="userSpaceOnUse">
<stop stop-color="#BC48D2"/>
<stop offset="0.46" stop-color="#506BFF"/>
<stop offset="1" stop-color="#0FF3F7"/>
</linearGradient>
<linearGradient id="paint11_linear_233_853" x1="-7.73731" y1="58.0319" x2="64.9362" y2="41.0231" gradientUnits="userSpaceOnUse">
<stop stop-color="#BC48D2"/>
<stop offset="0.46" stop-color="#506BFF"/>
<stop offset="1" stop-color="#0FF3F7"/>
</linearGradient>
<linearGradient id="paint12_linear_233_853" x1="-12.7904" y1="39.0159" x2="59.8832" y2="22.007" gradientUnits="userSpaceOnUse">
<stop stop-color="#BC48D2"/>
<stop offset="0.46" stop-color="#506BFF"/>
<stop offset="1" stop-color="#0FF3F7"/>
</linearGradient>
<linearGradient id="paint13_linear_233_853" x1="-9.83214" y1="30.8265" x2="62.8413" y2="13.8177" gradientUnits="userSpaceOnUse">
<stop stop-color="#BC48D2"/>
<stop offset="0.46" stop-color="#506BFF"/>
<stop offset="1" stop-color="#0FF3F7"/>
</linearGradient>
<linearGradient id="paint14_linear_233_853" x1="-9.34753" y1="23.1994" x2="63.326" y2="6.19056" gradientUnits="userSpaceOnUse">
<stop stop-color="#BC48D2"/>
<stop offset="0.46" stop-color="#506BFF"/>
<stop offset="1" stop-color="#0FF3F7"/>
</linearGradient>
<linearGradient id="paint15_linear_233_853" x1="-15.4649" y1="14.1352" x2="57.2086" y2="-2.87358" gradientUnits="userSpaceOnUse">
<stop stop-color="#BC48D2"/>
<stop offset="0.46" stop-color="#506BFF"/>
<stop offset="1" stop-color="#0FF3F7"/>
</linearGradient>
<linearGradient id="paint16_linear_233_853" x1="-9.09335" y1="31.8634" x2="63.5801" y2="14.8546" gradientUnits="userSpaceOnUse">
<stop stop-color="#BC48D2"/>
<stop offset="0.46" stop-color="#506BFF"/>
<stop offset="1" stop-color="#0FF3F7"/>
</linearGradient>
<linearGradient id="paint17_linear_233_853" x1="-5.77206" y1="51.3752" x2="66.9014" y2="34.3664" gradientUnits="userSpaceOnUse">
<stop stop-color="#BC48D2"/>
<stop offset="0.46" stop-color="#506BFF"/>
<stop offset="1" stop-color="#0FF3F7"/>
</linearGradient>
<linearGradient id="paint18_linear_233_853" x1="-9.57951" y1="45.4717" x2="63.0941" y2="28.4628" gradientUnits="userSpaceOnUse">
<stop stop-color="#BC48D2"/>
<stop offset="0.46" stop-color="#506BFF"/>
<stop offset="1" stop-color="#0FF3F7"/>
</linearGradient>
<linearGradient id="paint19_linear_233_853" x1="-6.97107" y1="50.4242" x2="65.7024" y2="33.4154" gradientUnits="userSpaceOnUse">
<stop stop-color="#BC48D2"/>
<stop offset="0.46" stop-color="#506BFF"/>
<stop offset="1" stop-color="#0FF3F7"/>
</linearGradient>
<linearGradient id="paint20_linear_233_853" x1="-9.33942" y1="40.3022" x2="63.334" y2="23.2934" gradientUnits="userSpaceOnUse">
<stop stop-color="#BC48D2"/>
<stop offset="0.46" stop-color="#506BFF"/>
<stop offset="1" stop-color="#0FF3F7"/>
</linearGradient>
<linearGradient id="paint21_linear_233_853" x1="-10.4721" y1="29.5759" x2="62.2014" y2="12.567" gradientUnits="userSpaceOnUse">
<stop stop-color="#BC48D2"/>
<stop offset="0.46" stop-color="#506BFF"/>
<stop offset="1" stop-color="#0FF3F7"/>
</linearGradient>
</defs>
</svg>
