<svg width="24" height="24" viewBox="0 0 24 24" fill="none" xmlns="http://www.w3.org/2000/svg">
<g id="read-svgrepo-com 1">
<g id="read">
<g id="read_2">
<path id="Combined Shape" fill-rule="evenodd" clip-rule="evenodd" d="M12.4986 14.1406L12.4983 9.17597L19.0716 7.41422C19.3383 7.34272 19.4966 7.06857 19.4251 6.80182C19.3535 6.53507 19.0794 6.37682 18.8127 6.44832L12.4982 8.14067L12.498 5.58232C12.498 5.35577 12.6499 5.15782 12.8683 5.09937L20.6443 3.01836C20.8842 2.95404 21.015 3.04983 21.015 3.26736V17.9784C21.015 18.3013 20.7216 18.6733 20.3855 18.7634L12.1217 20.9754C12.0101 21.0067 11.9822 21.0064 11.8837 20.978L3.62956 18.7634C3.29341 18.6733 3 18.3013 3 17.9784V3.26736C3 3.04983 3.13085 2.95404 3.37052 3.0183L9.8304 4.75227C10.0971 4.82385 10.3713 4.66568 10.4429 4.39898C10.5145 4.13228 10.3563 3.85804 10.0896 3.78645L3.62962 2.05245C2.7652 1.82069 2 2.38085 2 3.26736V17.9784C2 18.7594 2.60254 19.5234 3.37052 19.7293L11.6154 21.9413C11.8821 22.0184 12.0998 22.0202 12.3862 21.9398L20.6443 19.7294C21.4125 19.5234 22.015 18.7594 22.015 17.9784V3.26736C22.015 2.38085 21.2498 1.82069 20.3855 2.05242L12.6097 4.13336C11.9539 4.30894 11.498 4.90316 11.498 5.58237L11.4982 8.40867L10.8467 8.58332C10.58 8.65477 10.4216 8.92897 10.4931 9.19572C10.5646 9.46242 10.8388 9.62072 11.1055 9.54922L11.4983 9.44397L11.4986 14.4086L10.8467 14.5833C10.58 14.6548 10.4216 14.929 10.4931 15.1957C10.5646 15.4624 10.8388 15.6207 11.1055 15.5492L11.4987 15.4438L11.499 19.4594C11.499 19.7355 11.7229 19.9594 11.9991 19.9594C12.2752 19.9593 12.499 19.7355 12.499 19.4593L12.4987 15.1758L19.0716 13.4142C19.3383 13.3427 19.4966 13.0686 19.4251 12.8018C19.3535 12.5351 19.0794 12.3768 18.8127 12.4483L12.4986 14.1406ZM14.1608 11.7097L19.1108 10.4147C19.3779 10.3448 19.5378 10.0716 19.4679 9.80442C19.398 9.53727 19.1248 9.37737 18.8577 9.44722L13.9076 10.7422C13.6405 10.8121 13.4806 11.0854 13.5505 11.3525C13.6203 11.6197 13.8936 11.7796 14.1608 11.7097ZM15.5867 17.3482L14.1387 17.7362C13.872 17.8077 13.5978 17.6494 13.5264 17.3827C13.4549 17.1159 13.6131 16.8418 13.8799 16.7703L15.3279 16.3823C15.5946 16.3108 15.8688 16.4691 15.9403 16.7359C16.0118 17.0026 15.8535 17.2768 15.5867 17.3482Z" fill="#4E68F8"/>
</g>
</g>
</g>
</svg>
