<svg width="24" height="22" viewBox="0 0 24 22" fill="none" xmlns="http://www.w3.org/2000/svg">
<g id="Group">
<g id="Group_2">
<g id="Group_3">
<path id="Vector" d="M23.6482 19.0524L21.6974 17.1015C21.482 16.8863 21.2053 16.7702 20.9238 16.7525L20.2611 16.0899C21.2456 14.5248 21.0572 12.4279 19.6958 11.0665C18.1155 9.48625 15.5444 9.48631 13.964 11.0665C12.384 12.6468 12.384 15.218 13.9643 16.7982C15.3256 18.1597 17.4225 18.348 18.9874 17.3636L19.6501 18.0261C19.6677 18.3078 19.7839 18.5846 19.9993 18.7998L21.9501 20.7506C22.419 21.2196 23.1793 21.2195 23.6484 20.7506C24.1171 20.2817 24.1172 19.5214 23.6482 19.0524ZM18.8468 15.9492C17.7348 17.0611 15.9255 17.0611 14.8133 15.9492C13.7014 14.8372 13.7014 13.0279 14.8133 11.9158C15.9252 10.8038 17.7345 10.8038 18.8468 11.9159C19.9587 13.0279 19.9587 14.8372 18.8468 15.9492Z" fill="#506BFF"/>
<path id="Vector_2" d="M13.2862 10.4516C14.2149 9.52307 15.451 9.01167 16.767 9.01167C18.083 9.01167 19.3192 9.52301 20.2478 10.4516C21.0405 11.2442 21.542 12.2949 21.6601 13.4102C21.7509 14.2679 21.6147 15.1382 21.2662 15.9278L21.278 15.9397C21.6457 16.0297 21.9814 16.2186 22.2493 16.4864L22.4419 16.679V3.21321C22.4419 3.0012 22.3369 2.80281 22.1613 2.68359C20.442 1.51549 18.4892 0.897949 16.5134 0.897949C14.6724 0.897949 12.8514 1.43436 11.2209 2.45266C9.58983 1.43436 7.7684 0.897949 5.92744 0.897949C3.95217 0.897949 1.99934 1.51544 0.28041 2.68359C0.104972 2.80287 0 3.00125 0 3.21321V18.224C0 18.4613 0.13106 18.679 0.340779 18.7902C0.550498 18.9012 0.80409 18.8871 1.00046 18.7539C2.50608 17.7308 4.21003 17.1897 5.92767 17.1897C7.64542 17.1897 9.34971 17.7308 10.8559 18.754C10.9637 18.8276 11.0895 18.8647 11.2154 18.8647C11.2161 18.8647 11.2168 18.8646 11.2176 18.8646C11.3467 18.8663 11.4757 18.8291 11.586 18.7539C12.2301 18.3162 12.9107 17.9675 13.613 17.7109C13.5005 17.6168 13.3912 17.518 13.2864 17.4131C11.3669 15.4938 11.3669 12.3709 13.2862 10.4516ZM13.0741 5.21457C14.2752 4.39343 15.9166 4.27084 16.7882 4.27084C17.6597 4.27084 19.3011 4.39349 20.5022 5.21457C20.7979 5.41672 20.8736 5.82017 20.6717 6.11578C20.4695 6.4114 20.0659 6.48725 19.7704 6.28516C19.1035 5.8292 18.0165 5.56764 16.7883 5.56764C15.56 5.56764 14.4729 5.82914 13.8061 6.28516C13.6942 6.36163 13.5667 6.39838 13.4407 6.39838C13.2338 6.39838 13.0304 6.29958 12.9047 6.11584C12.7027 5.82022 12.7786 5.41672 13.0741 5.21457ZM13.0741 8.0198C14.2752 7.19866 15.9166 7.07607 16.7882 7.07607C17.6597 7.07607 19.3011 7.19871 20.5022 8.0198C20.7979 8.22195 20.8736 8.62539 20.6717 8.92101C20.4695 9.21662 20.0659 9.29248 19.7704 9.09039C19.1035 8.63443 18.0165 8.37287 16.7883 8.37287C15.56 8.37287 14.4729 8.63437 13.8061 9.09039C13.6942 9.16686 13.5667 9.20361 13.4407 9.20361C13.2338 9.20361 13.0304 9.10481 12.9047 8.92106C12.7027 8.62545 12.7786 8.22195 13.0741 8.0198ZM9.53698 14.5315C9.33489 14.8272 8.93133 14.903 8.63572 14.701C7.96881 14.2449 6.88178 13.9834 5.65354 13.9834C4.4253 13.9834 3.33822 14.2449 2.67136 14.701C2.55949 14.7774 2.43202 14.8142 2.30601 14.8142C2.09904 14.8142 1.89572 14.7154 1.77004 14.5317C1.56795 14.236 1.64381 13.8326 1.93948 13.6305C3.14056 12.8093 4.78196 12.6868 5.65354 12.6868C6.52512 12.6868 8.16652 12.8095 9.3676 13.6305C9.66322 13.8324 9.73902 14.2359 9.53698 14.5315ZM9.53698 11.7263C9.33489 12.022 8.93133 12.0978 8.63572 11.8957C7.96881 11.4397 6.88178 11.1782 5.65354 11.1782C4.4253 11.1782 3.33822 11.4397 2.67136 11.8957C2.55949 11.9721 2.43202 12.009 2.30601 12.009C2.09904 12.009 1.89572 11.9102 1.77004 11.7265C1.56795 11.4308 1.64381 11.0273 1.93948 10.8253C3.14056 10.0041 4.78196 9.88152 5.65354 9.88152C6.52512 9.88152 8.16652 10.0042 9.3676 10.8253C9.66322 11.0272 9.73902 11.4307 9.53698 11.7263ZM9.53698 8.92106C9.33489 9.21668 8.93133 9.29253 8.63572 9.09044C7.96881 8.63448 6.88178 8.37292 5.65354 8.37292C4.4253 8.37292 3.33822 8.63443 2.67136 9.09044C2.55949 9.16691 2.43202 9.20366 2.30601 9.20366C2.09904 9.20366 1.89572 9.10486 1.77004 8.92112C1.56795 8.62551 1.64381 8.222 1.93948 8.01991C3.14056 7.19877 4.78196 7.07618 5.65354 7.07618C6.52512 7.07618 8.16652 7.19882 9.3676 8.01991C9.66322 8.22195 9.73902 8.62545 9.53698 8.92106ZM9.53698 6.11584C9.33489 6.41145 8.93133 6.48731 8.63572 6.28522C7.96881 5.82926 6.88178 5.5677 5.65354 5.5677C4.4253 5.5677 3.33822 5.8292 2.67136 6.28522C2.55949 6.36169 2.43202 6.39844 2.30601 6.39844C2.09904 6.39844 1.89572 6.29964 1.77004 6.11589C1.56795 5.82028 1.64381 5.41678 1.93948 5.21469C3.14056 4.39354 4.78196 4.27095 5.65354 4.27095C6.52512 4.27095 8.16652 4.3936 9.3676 5.21469C9.66322 5.41672 9.73902 5.82022 9.53698 6.11584Z" fill="#506BFF"/>
</g>
</g>
</g>
</svg>
