<svg width="24" height="24" viewBox="0 0 24 24" fill="none" xmlns="http://www.w3.org/2000/svg">
<g id="Message">
<path id="Vector" d="M18 0.75H12.075H6C3.075 0.75 0.75 3.075 0.75 6V13.5C0.75 16.125 2.7 18.3 5.25 18.675V22.5C5.25 22.8 5.4 23.025 5.625 23.175C5.775 23.25 5.85 23.25 6 23.25C6.15 23.25 6.3 23.175 6.45 23.1L12.075 18.9L12.3 18.75H18C20.925 18.75 23.25 16.425 23.25 13.5V6C23.25 3.075 20.925 0.75 18 0.75Z" fill="#506BFF"/>
<path id="Vector_2" d="M12.075 5.25V6.75H6C5.625 6.75 5.25 6.375 5.25 6C5.25 5.625 5.625 5.25 6 5.25H12.075Z" fill="#E9FBFF"/>
<path id="Vector_3" d="M12.075 9.75V11.25H6C5.625 11.25 5.25 10.875 5.25 10.5C5.25 10.125 5.625 9.75 6 9.75H12.075Z" fill="#E9FBFF"/>
<g id="Group">
<path id="Vector_4" d="M6 6.75H12.075H18C18.375 6.75 18.75 6.375 18.75 6C18.75 5.625 18.375 5.25 18 5.25H12.075H6C5.625 5.25 5.25 5.625 5.25 6C5.25 6.375 5.625 6.75 6 6.75Z" fill="#E9FBFF"/>
<path id="Vector_5" d="M18 9.75H12.075H6C5.625 9.75 5.25 10.125 5.25 10.5C5.25 10.875 5.625 11.25 6 11.25H12.075H18C18.375 11.25 18.75 10.875 18.75 10.5C18.75 10.125 18.375 9.75 18 9.75Z" fill="#E9FBFF"/>
</g>
</g>
</svg>
