<svg width="24" height="24" viewBox="0 0 24 24" fill="none" xmlns="http://www.w3.org/2000/svg">
<g id=" ">
<path id="Vector" fill-rule="evenodd" clip-rule="evenodd" d="M8.76929 5.29834C8.76929 5.33526 8.80621 5.37219 8.80621 5.40911C8.80882 5.38906 8.80686 5.36867 8.80046 5.34949C8.79407 5.3303 8.78341 5.31281 8.76929 5.29834Z" fill="#506BFF"/>
<path id="Vector_2" fill-rule="evenodd" clip-rule="evenodd" d="M8.79224 5.29823C8.79224 5.33516 8.82916 5.37208 8.82916 5.409C8.8752 5.55091 8.93713 5.68716 9.01378 5.81516C9.26767 6.32503 9.65404 6.75722 10.1324 7.06644C10.6107 7.37566 11.1634 7.55052 11.7326 7.5727C12.3017 7.59488 12.8664 7.46356 13.3673 7.19251C13.8683 6.92145 14.2871 6.52064 14.5799 6.03208C15.8304 6.46944 16.9442 7.22733 17.81 8.23001C18.6758 9.23269 19.2633 10.4451 19.5138 11.7459C19.6615 11.7459 19.8092 11.709 19.9199 11.709C20.5224 11.7117 21.1205 11.8098 21.6922 11.9998C21.4716 10.1612 20.7249 8.42547 19.5419 7.00092C18.3588 5.57637 16.7897 4.52359 15.023 3.969C14.9799 3.59595 14.8672 3.2343 14.6907 2.90285C14.297 2.15318 13.6246 1.58805 12.8184 1.3291C12.0122 1.07014 11.1366 1.13806 10.3799 1.51824C9.75549 1.82017 9.24748 2.3188 8.93396 2.93751C8.62044 3.55621 8.51876 4.26075 8.64455 4.94285C8.70267 5.05742 8.75204 5.17622 8.79224 5.29823Z" fill="#506BFF"/>
<path id="Vector_3" fill-rule="evenodd" clip-rule="evenodd" d="M6.98766 15.5771C6.74912 15.1012 6.39442 14.6931 5.95637 14.3906C5.51832 14.0881 5.01107 13.9009 4.48151 13.8464C4.44978 13.6263 4.43742 13.4039 4.44459 13.1817C4.45463 12.0366 4.7176 10.9079 5.21467 9.87623C5.71175 8.84457 6.43065 7.93551 7.31997 7.21405C7.23074 7.05449 7.1321 6.90037 7.02459 6.75251C6.7809 6.25086 6.60698 5.71823 6.50766 5.16943C5.20565 6.06227 4.13986 7.25786 3.40186 8.65348C2.66385 10.0491 2.2757 11.603 2.27074 13.1817C2.27074 13.5879 2.30766 13.9571 2.34459 14.3633C1.82249 14.7064 1.41107 15.1935 1.16017 15.7657C0.909263 16.3379 0.829638 16.9705 0.930933 17.587C1.03223 18.2035 1.3101 18.7774 1.73089 19.2392C2.15169 19.701 2.69735 20.0309 3.30179 20.1889C3.90624 20.3469 4.54353 20.3263 5.1365 20.1295C5.72946 19.9328 6.25265 19.5683 6.64271 19.0802C7.03276 18.5922 7.27295 18.0015 7.33417 17.3798C7.3954 16.758 7.27504 16.1319 6.98766 15.5771Z" fill="#506BFF"/>
<path id="Vector_4" fill-rule="evenodd" clip-rule="evenodd" d="M22.7216 15.577C22.3354 14.8199 21.6643 14.2473 20.8558 13.985C20.0474 13.7227 19.1679 13.7924 18.4108 14.1786C17.6537 14.5648 17.0811 15.2359 16.8188 16.0443C16.5565 16.8527 16.6262 17.7322 17.0124 18.4893C17.0493 18.5632 17.1231 18.6739 17.16 18.7478C15.7584 20.0513 13.9141 20.7738 12 20.7693C10.8081 20.7557 9.63565 20.465 8.57543 19.9201C8.18668 20.5498 7.6555 21.0794 7.02466 21.4663C8.53498 22.383 10.2702 22.8624 12.037 22.8509C14.6062 22.844 17.069 21.8241 18.8908 20.0124C19.2907 20.165 19.7192 20.2275 20.146 20.1956C20.5728 20.1637 20.9873 20.0381 21.36 19.8278C21.7324 19.6423 22.0638 19.384 22.3348 19.0683C22.6057 18.7526 22.8107 18.3859 22.9376 17.9897C23.0645 17.5935 23.1108 17.1759 23.0737 16.7615C23.0366 16.3471 22.9169 15.9444 22.7216 15.577Z" fill="#506BFF"/>
<path id="Vector_5" fill-rule="evenodd" clip-rule="evenodd" d="M8.82929 15.7614C8.82139 15.7871 8.82064 15.8144 8.82711 15.8405C8.83358 15.8665 8.84703 15.8903 8.86601 15.9093C8.885 15.9283 8.9088 15.9417 8.93486 15.9482C8.96092 15.9547 8.98825 15.9539 9.01391 15.946L10.2324 15.4845C10.274 15.4632 10.3212 15.4553 10.3675 15.4619C10.4138 15.4685 10.4569 15.4893 10.4908 15.5214C10.9949 15.845 11.5861 16.0061 12.1847 15.983C13.0537 16.0091 13.8977 15.6903 14.5325 15.0962C15.1672 14.5022 15.5411 13.681 15.5724 12.8122C15.5399 11.9442 15.1655 11.1242 14.5309 10.5311C13.8963 9.93798 13.0529 9.61984 12.1847 9.64603C11.3216 9.62727 10.4859 9.94888 9.858 10.5413C9.23014 11.1338 8.86061 11.9495 8.82929 12.8122C8.84706 13.3348 8.98443 13.8464 9.23083 14.3076C9.25463 14.3457 9.27021 14.3884 9.27657 14.4329C9.28292 14.4774 9.27992 14.5227 9.26776 14.566L8.82929 15.7614Z" fill="#506BFF"/>
</g>
</svg>
